<?xml version="1.0" encoding="UTF-8" standalone="no"?>
<svg
   width="2232"
   height="2500"
   viewBox="32.163 68.509 203.691 228.155"
   version="1.1"
   id="svg5"
   sodipodi:docname="android-red.svg"
   inkscape:version="1.3 (0e150ed6c4, 2023-07-21)"
   xmlns:inkscape="http://www.inkscape.org/namespaces/inkscape"
   xmlns:sodipodi="http://sodipodi.sourceforge.net/DTD/sodipodi-0.dtd"
   xmlns="http://www.w3.org/2000/svg"
   xmlns:svg="http://www.w3.org/2000/svg">
  <defs
     id="defs5" />
  <sodipodi:namedview
     id="namedview5"
     pagecolor="#ffffff"
     bordercolor="#666666"
     borderopacity="1.0"
     inkscape:showpageshadow="2"
     inkscape:pageopacity="0.0"
     inkscape:pagecheckerboard="0"
     inkscape:deskcolor="#d1d1d1"
     inkscape:zoom="0.2396"
     inkscape:cx="1114.3573"
     inkscape:cy="1250"
     inkscape:window-width="1440"
     inkscape:window-height="837"
     inkscape:window-x="-8"
     inkscape:window-y="-8"
     inkscape:window-maximized="1"
     inkscape:current-layer="svg5" />
  <path
     d="M101.885 207.092c7.865 0 14.241 6.376 14.241 14.241v61.09c0 7.865-6.376 14.24-14.241 14.24-7.864 0-14.24-6.375-14.24-14.24v-61.09c0-7.864 6.376-14.24 14.24-14.24z"
     fill="#a4c639"
     id="path1"
     style="fill:#f85c70;fill-opacity:1" />
  <path
     d="M69.374 133.645c-.047.54-.088 1.086-.088 1.638v92.557c0 9.954 7.879 17.973 17.66 17.973h94.124c9.782 0 17.661-8.02 17.661-17.973v-92.557c0-.552-.02-1.1-.066-1.638H69.374z"
     fill="#a4c639"
     id="path2"
     style="fill:#f85c70;fill-opacity:1" />
  <path
     d="m 166.133,207.092 c 7.865,0 14.241,6.376 14.241,14.241 v 61.09 c 0,7.865 -6.376,14.24 -14.241,14.24 -7.864,0 -14.24,-6.375 -14.24,-14.24 v -61.09 c 0,-7.864 6.376,-14.24 14.24,-14.24 z M 46.405,141.882 c 7.864,0 14.24,6.376 14.24,14.241 v 61.09 c 0,7.865 -6.376,14.241 -14.24,14.241 -7.865,0 -14.241,-6.376 -14.241,-14.24 v -61.09 c -0.001,-7.865 6.375,-14.242 14.241,-14.242 z m 175.209,0 c 7.864,0 14.24,6.376 14.24,14.241 v 61.09 c 0,7.865 -6.376,14.241 -14.24,14.241 -7.865,0 -14.241,-6.376 -14.241,-14.24 v -61.09 c 0,-7.865 6.376,-14.242 14.241,-14.242 z M 69.79,127.565 C 70.186,99.135 95,75.825 126.852,72.753 h 14.312 c 31.854,3.073 56.666,26.384 57.062,54.812 z"
     fill="#a4c639"
     id="path3"
     style="display:inline;fill:#f85c70;fill-opacity:1" />
  <path
     d="M74.743 70.009l15.022 26.02M193.276 70.009l-15.023 26.02"
     fill="none"
     stroke="#a4c639"
     stroke-width="3"
     stroke-linecap="round"
     stroke-linejoin="round"
     id="path4"
     style="stroke:#f85c70;stroke-opacity:1" />
  <path
     d="M114.878 102.087c.012 3.974-3.277 7.205-7.347 7.216-4.068.01-7.376-3.202-7.388-7.176v-.04c-.011-3.975 3.278-7.205 7.347-7.216 4.068-.011 7.376 3.2 7.388 7.176v.04zM169.874 102.087c.012 3.974-3.277 7.205-7.347 7.216-4.068.01-7.376-3.202-7.388-7.176v-.04c-.011-3.975 3.278-7.205 7.347-7.216 4.068-.011 7.376 3.2 7.388 7.176v.04z"
     fill="#fff"
     id="path5" />
</svg>
